<?xml version="1.0" encoding="UTF-8" standalone="no"?>
<svg
   xmlns:dc="http://purl.org/dc/elements/1.1/"
   xmlns:cc="http://creativecommons.org/ns#"
   xmlns:rdf="http://www.w3.org/1999/02/22-rdf-syntax-ns#"
   xmlns:svg="http://www.w3.org/2000/svg"
   xmlns="http://www.w3.org/2000/svg"
   xmlns:sodipodi="http://sodipodi.sourceforge.net/DTD/sodipodi-0.dtd"
   xmlns:inkscape="http://www.inkscape.org/namespaces/inkscape"
   height="16"
   viewBox="0 0 16 16"
   width="16"
   version="1.1"
   id="svg4"
   sodipodi:docname="icon-steam.svg"
   inkscape:version="0.92.2 (5c3e80d, 2017-08-06)">
  <metadata
     id="metadata10">
    <rdf:RDF>
      <cc:Work
         rdf:about="">
        <dc:format>image/svg+xml</dc:format>
        <dc:type
           rdf:resource="http://purl.org/dc/dcmitype/StillImage" />
        <dc:title></dc:title>
      </cc:Work>
    </rdf:RDF>
  </metadata>
  <defs
     id="defs8" />
  <sodipodi:namedview
     pagecolor="#ffffff"
     bordercolor="#666666"
     borderopacity="1"
     objecttolerance="10"
     gridtolerance="10"
     guidetolerance="10"
     inkscape:pageopacity="0"
     inkscape:pageshadow="2"
     inkscape:window-width="709"
     inkscape:window-height="480"
     id="namedview6"
     showgrid="false"
     fit-margin-top="0"
     fit-margin-left="0"
     fit-margin-right="0"
     fit-margin-bottom="0"
     inkscape:zoom="0.13169643"
     inkscape:cx="8"
     inkscape:cy="8"
     inkscape:window-x="205"
     inkscape:window-y="156"
     inkscape:window-maximized="0"
     inkscape:current-layer="svg4" />
  <path
     d="m 12.9375,5.40625 q 0,-0.83333 -0.59375,-1.42188 Q 11.75,3.39583 10.91667,3.39583 q -0.83334,0 -1.42188,0.59375 -0.58854,0.59375 -0.58854,1.41667 0,0.83333 0.58854,1.42187 0.58854,0.58855 1.42188,0.58855 0.83333,0 1.42708,-0.58855 0.59375,-0.58854 0.59375,-1.42187 z m -6.35417,6.125 q 0,0.86458 -0.60416,1.46354 -0.60417,0.59896 -1.45834,0.59896 -0.58333,0 -1.07291,-0.30208 -0.48959,-0.30209 -0.75,-0.80209 0.54166,0.20834 1.02083,0.41667 0.625,0.25 1.25,-0.0156 0.625,-0.26562 0.88542,-0.90104 0.25,-0.625 -0.0156,-1.25 -0.26562,-0.625 -0.90104,-0.875 L 4.08336,9.52086 q 0.22917,-0.0521 0.4375,-0.0521 0.85417,0 1.45834,0.59896 0.60416,0.59896 0.60416,1.46354 z M 16,3 v 10 q 0,1.23958 -0.88021,2.11979 Q 14.23958,16 13,16 H 3 Q 1.76042,16 0.88021,15.11979 0,14.23958 0,13 V 11.40625 L 1.79167,12.125 Q 2,13.08333 2.76562,13.70833 q 0.76563,0.625 1.75521,0.625 1.08334,0 1.88542,-0.72916 Q 7.20833,12.875 7.3125,11.80208 l 3.59375,-2.625 q 1.5625,0 2.66146,-1.09896 1.09896,-1.09895 1.09896,-2.65104 0,-1.5625 -1.09896,-2.66146 -1.09896,-1.09895 -2.66146,-1.09895 -1.54167,0 -2.63542,1.08854 Q 7.17708,3.84375 7.15625,5.38542 L 4.8125,8.73958 q -0.0937,-0.0104 -0.29167,-0.0104 -0.78125,0 -1.42708,0.38541 L 0,7.875 V 3 Q 0,1.76042 0.88021,0.88021 1.76042,0 3,0 H 13 Q 14.23958,0 15.11979,0.88021 16,1.76042 16,3 Z m -2.57292,2.42708 q 0,1.04167 -0.73958,1.77604 -0.73958,0.73438 -1.78125,0.73438 -1.04167,0 -1.77604,-0.73438 -0.73438,-0.73437 -0.73438,-1.77604 0,-1.04166 0.73438,-1.78125 0.73437,-0.73958 1.77604,-0.73958 1.05208,0 1.78646,0.73437 0.73437,0.73438 0.73437,1.78646 z"
     id="path2"
     inkscape:connector-curvature="0"
     style="stroke-width:0.01041667" />
</svg>
