<svg xmlns="http://www.w3.org/2000/svg" xmlns:xlink="http://www.w3.org/1999/xlink" version="1.1" id="Capa_1" x="0px" y="0px" viewBox="0 0 512 512" style="enable-background:new 0 0 512 512;" xml:space="preserve" width="16px" height="16px">
  <path d="M213.762,205.233c-3.453-0.003-6.567,2.075-7.888,5.265s-0.589,6.862,1.855,9.301l90.508,90.509     c2.153,2.176,5.306,3.033,8.264,2.245c2.958-0.788,5.268-3.099,6.053-6.057s-0.073-6.111-2.25-8.262l-90.508-90.509     C218.195,206.127,216.025,205.231,213.762,205.233z" fill="#828282"/>
  <path d="M486.4,0H25.6C11.468,0.015,0.015,11.468,0,25.6v460.8c0.015,14.132,11.468,25.585,25.6,25.6h460.8     c14.132-0.015,25.585-11.468,25.6-25.6V25.6C511.985,11.468,500.532,0.015,486.4,0z M213.762,274.1L213.762,274.1     c-13.337,13.311-34.934,13.311-48.271,0L87.05,195.658c-13.308-13.337-13.308-34.93,0-48.267l60.338-60.342     c13.335-13.317,34.936-13.317,48.271,0l78.442,78.442c13.308,13.337,13.308,34.93,0,48.267c-2.156,2.156-5.297,2.997-8.242,2.208     c-2.945-0.789-5.245-3.089-6.033-6.033c-0.789-2.945,0.053-6.086,2.208-8.242c6.654-6.668,6.654-17.465,0-24.133l-78.442-78.442     c-6.672-6.65-17.466-6.65-24.137,0l-60.338,60.342c-6.654,6.668-6.654,17.465,0,24.133l78.442,78.441     c6.672,6.65,17.466,6.65,24.138,0c2.155-2.156,5.297-2.997,8.242-2.208c2.944,0.789,5.244,3.089,6.033,6.033     C216.76,268.802,215.918,271.944,213.762,274.1z M322.375,286.167c9.977,10.001,9.967,26.193-0.021,36.183     s-26.181,10.001-36.183,0.025l-90.508-90.508c-9.999-9.996-10.001-26.206-0.004-36.204c9.996-9.999,26.206-10.001,36.204-0.004     L322.375,286.167z M424.95,364.608L424.95,364.608l-60.338,60.342c-13.337,13.311-34.934,13.311-48.271,0L237.9,346.508     c-13.308-13.337-13.308-34.93,0-48.267c2.156-2.156,5.297-2.997,8.242-2.209c2.945,0.789,5.245,3.089,6.034,6.033     s-0.053,6.086-2.208,8.242c-6.654,6.668-6.654,17.465,0,24.133l78.442,78.442c6.672,6.65,17.466,6.65,24.138,0l60.338-60.342     c6.654-6.668,6.654-17.465,0-24.133l-78.442-78.441c-6.672-6.65-17.466-6.65-24.137,0c-2.156,2.156-5.297,2.997-8.242,2.208     c-2.944-0.789-5.244-3.089-6.033-6.033c-0.789-2.944,0.053-6.086,2.208-8.242c13.338-13.308,34.932-13.308,48.271,0     l78.442,78.442C438.258,329.679,438.258,351.272,424.95,364.608z" fill="#828282"/></svg>